<svg xmlns="http://www.w3.org/2000/svg" viewBox="0 0 400 300" fill="none" stroke="#1f2937" stroke-width="2" stroke-linecap="round" stroke-linejoin="round">
  <!-- Coude droit vu de dedans : patient en décubitus dorsal, épaule en abduction-rotation externe, bras venant de la gauche, avant-bras fléchi vers le haut à droite ; épicondyle médial, olécrane, gouttière et nerf ulnaire en pointillés -->
  <path d="M0,110 C60,108 130,106 176,110 C200,112 214,118 226,130"/>
  <path d="M0,196 C60,198 120,200 170,204 C200,208 222,214 236,224"/>
  <path d="M226,130 C260,104 310,64 400,30"/>
  <path d="M236,224 C280,196 330,160 400,120"/>
  <path d="M0,250 L400,250" stroke-width="1" opacity=".4"/>
  <g stroke-width="1.3" stroke-dasharray="4 4" opacity=".7">
    <circle cx="192" cy="152" r="13"/>
    <circle cx="228" cy="186" r="12"/>
    <path d="M40,150 C120,152 180,160 206,172 C230,184 260,178 300,152"/>
  </g>
</svg>
