<svg xmlns="http://www.w3.org/2000/svg" viewBox="0 0 400 300" fill="none" stroke="#1f2937" stroke-width="2" stroke-linecap="round" stroke-linejoin="round">
  <!-- Poignet droit vu par son bord radial (avant-bras en demi-pronation, pouce vers le haut/vers l'observateur), avant-bras venant de la gauche, main vers la droite ; face dorsale en haut de l'image, face palmaire en bas ; styloïde radiale, base du 1er métacarpien et tendons du 1er compartiment en pointillés -->
  <path d="M0,110 C60,110 130,112 184,116 C210,118 240,116 262,110"/>
  <path d="M0,190 C60,190 130,188 184,186 C220,186 300,190 400,194"/>
  <path d="M262,110 C290,100 330,96 360,106 C384,114 396,132 400,150"/>
  <path d="M236,120 C250,104 276,96 296,104 C314,112 318,132 306,146 C292,160 262,158 246,148 C236,140 232,130 236,120 Z" stroke-width="1.6" opacity=".8"/>
  <g stroke-width="1.3" stroke-dasharray="4 4" opacity=".7">
    <circle cx="196" cy="150" r="9"/>
    <path d="M226,128 L232,150"/>
    <path d="M40,146 C120,146 170,142 196,140 C214,138 228,132 240,124"/>
    <path d="M40,158 C120,158 170,154 196,152 C214,150 230,146 244,140"/>
  </g>
  <text x="8" y="100" font-size="9" fill="#374151" stroke="none">dorsal</text>
  <text x="8" y="206" font-size="9" fill="#374151" stroke="none">palmaire</text>
</svg>
