<svg xmlns="http://www.w3.org/2000/svg" viewBox="0 0 400 300" font-family="-apple-system, Helvetica, Arial, sans-serif">
<rect width="400" height="300" fill="#f8fafc"/>
<g fill="none" stroke="#1f2937" stroke-width="2" stroke-linecap="round" stroke-linejoin="round">
  <!-- Bassin et fesses vus de dos, patient en décubitus ventral, tête en haut : crêtes iliaques, EIPS, sacrum et coccyx, grands trochanters et tubérosités ischiatiques en pointillés ; sillon interfessier et plis fessiers en trait plein -->
  <path d="M74,0 C68,40 54,84 52,134 C50,192 60,250 72,300"/>
  <path d="M326,0 C332,40 346,84 348,134 C350,192 340,250 328,300"/>
  <path d="M200,152 L200,262"/>
  <path d="M96,262 C132,282 172,280 199,263" stroke-width="1.6" opacity=".8"/>
  <path d="M304,262 C268,282 228,280 201,263" stroke-width="1.6" opacity=".8"/>
  <path d="M200,264 C195,278 191,290 189,300 M200,264 C205,278 209,290 211,300" stroke-width="1.6" opacity=".8"/>
  <path d="M200,0 L200,90" stroke-dasharray="5 6" stroke-width="1.3" opacity=".6"/>
  <g stroke-width="1.3" stroke-dasharray="4 4" opacity=".7">
    <path d="M176,96 C162,70 142,50 116,48 C90,48 70,62 58,90"/>
    <path d="M224,96 C238,70 258,50 284,48 C310,48 330,62 342,90"/>
    <circle cx="176" cy="100" r="7"/><circle cx="224" cy="100" r="7"/>
    <path d="M180,108 L220,108 L207,172 L200,190 L193,172 Z"/>
    <circle cx="70" cy="186" r="10"/><circle cx="330" cy="186" r="10"/>
    <circle cx="156" cy="238" r="10"/><circle cx="244" cy="238" r="10"/>
  </g>
</g>
<g transform="translate(144,196) rotate(0)"><rect x="-26" y="-7" width="52" height="14" rx="3" fill="#1d4ed8" fill-opacity=".85" stroke="#1e3a8a"/><rect x="-24" y="4" width="48" height="2" fill="#93c5fd" stroke="none"/><circle cx="-20" cy="-12" r="3" fill="#1d4ed8" stroke="none"/></g><line x1="187" y1="181" x2="172" y2="191" stroke="#b91c1c" stroke-width="3"/><circle cx="187" cy="181" r="4" fill="#b91c1c" stroke="none"/><text x="134" y="92" font-size="10.5" font-weight="600" fill="#1f2937" stroke="#fff" stroke-width="3" paint-order="stroke">EIPS</text><text x="30" y="166" font-size="10.5" font-weight="600" fill="#1f2937" stroke="#fff" stroke-width="3" paint-order="stroke">grand trochanter</text><text x="100" y="222" font-size="10.5" font-weight="600" fill="#1f2937" stroke="#fff" stroke-width="3" paint-order="stroke">épine ischiatique</text><text x="258" y="242" font-size="10.5" font-weight="600" fill="#1f2937" stroke="#fff" stroke-width="3" paint-order="stroke">tubérosité ischiatique</text><g transform="translate(6,232)"><rect x="0" y="0" width="52" height="48" rx="6" fill="#fff" fill-opacity=".9" stroke="#9ca3af" stroke-width="1"/><path d="M8,24 a4,4 0 1,0 0.1,0 M12,24 L44,24 M20,24 L24,30 M34,24 L44,22 M6,31 L46,31" stroke="#1f2937" stroke-width="2.2" fill="none" stroke-linecap="round"/><text x="0" y="58" text-anchor="start" font-size="9" fill="#374151" stroke="none">Décubitus ventral</text></g><g font-size="9.5" fill="#374151" stroke="none" transform="translate(330,262)"><rect x="0" y="0" width="14" height="8" rx="2" fill="#1d4ed8"/><text x="18" y="8">sonde</text><line x1="0" y1="22" x2="14" y2="22" stroke="#b91c1c" stroke-width="3"/><text x="18" y="26">aiguille</text></g><text x="200" y="13" text-anchor="middle" font-size="9.5" fill="#374151" stroke="none"><tspan x="200" dy="0">Sonde convexe transversale sur l'épine ischiatique (descendre depuis</tspan><tspan x="200" dy="12">l'EIPS) ; ponction médiale, dans le plan, vers l'espace inter-ligamentaire</tspan></text>
</svg>