<svg xmlns="http://www.w3.org/2000/svg" viewBox="0 0 400 300" font-family="-apple-system, Helvetica, Arial, sans-serif">
<rect width="400" height="300" fill="#f8fafc"/>
<g fill="none" stroke="#1f2937" stroke-width="2" stroke-linecap="round" stroke-linejoin="round">
  <!-- Épaule droite vue de dos (patient assis) : tête en haut, bras du côté droit de l'image -->
  <path d="M124,58 C124,26 176,26 176,58 C176,84 164,96 150,96 C136,96 124,84 124,58 Z"/>
  <path d="M138,94 L134,120"/><path d="M162,94 L168,118"/>
  <path d="M168,118 C224,120 292,132 340,152"/>
  <path d="M134,120 C96,122 62,132 34,148 C22,196 16,248 16,300"/>
  <path d="M340,152 C362,172 372,220 366,300"/>
  <path d="M300,196 C308,234 308,264 306,300"/>
  <path d="M151,122 L146,300" stroke-dasharray="5 6" stroke-width="1.3" opacity=".6"/>
  <g stroke-width="1.3" stroke-dasharray="4 4" opacity=".7">
    <path d="M206,148 L194,280 L304,182 L326,158 Z"/>
    <path d="M206,166 L326,158"/>
  </g>
</g>
<g transform="translate(272,184) rotate(-8)"><rect x="-35" y="-7" width="70" height="14" rx="3" fill="#1d4ed8" fill-opacity=".85" stroke="#1e3a8a"/><rect x="-33" y="4" width="66" height="2" fill="#93c5fd" stroke="none"/><circle cx="-29" cy="-12" r="3" fill="#1d4ed8" stroke="none"/></g><line x1="334" y1="176" x2="300" y2="183" stroke="#b91c1c" stroke-width="3"/><circle cx="334" cy="176" r="4" fill="#b91c1c" stroke="none"/><text x="214" y="150" font-size="10.5" font-weight="600" fill="#1f2937" stroke="#fff" stroke-width="3" paint-order="stroke">épine de la scapula</text><text x="236" y="212" font-size="10.5" font-weight="600" fill="#1f2937" stroke="#fff" stroke-width="3" paint-order="stroke">interligne postérieur</text><g transform="translate(6,232)"><rect x="0" y="0" width="52" height="48" rx="6" fill="#fff" fill-opacity=".9" stroke="#9ca3af" stroke-width="1"/><path d="M14,10 a4,4 0 1,0 0.1,0 M14,14 L14,26 L26,26 L26,38 M14,26 L14,38 M14,18 L22,20" stroke="#1f2937" stroke-width="2.2" fill="none" stroke-linecap="round"/><text x="26" y="58" text-anchor="middle" font-size="9" fill="#374151" stroke="none">Assis</text></g><g font-size="9.5" fill="#374151" stroke="none" transform="translate(330,262)"><rect x="0" y="0" width="14" height="8" rx="2" fill="#1d4ed8"/><text x="18" y="8">sonde</text><line x1="0" y1="22" x2="14" y2="22" stroke="#b91c1c" stroke-width="3"/><text x="18" y="26">aiguille</text></g><text x="200" y="13" text-anchor="middle" font-size="9.5" fill="#374151" stroke="none"><tspan x="200" dy="0">Sonde transversale sous l'épine, axe de l'infra-épineux ; ponction</tspan><tspan x="200" dy="12">latérale, dans le plan, vers l'espace tête humérale – labrum</tspan></text>
</svg>